<svg xmlns="http://www.w3.org/2000/svg" xmlns:xlink="http://www.w3.org/1999/xlink" width="227" zoomAndPan="magnify" viewBox="0 0 170.25 42.75" height="57" preserveAspectRatio="xMidYMid meet" version="1.0"><defs><g/><clipPath id="e0050e5039"><path d="M 0.121094 0 L 169.382812 0 L 169.382812 42.5 L 0.121094 42.5 Z M 0.121094 0 " clip-rule="nonzero"/></clipPath><clipPath id="5ac9336112"><path d="M 0.121094 0 L 169.382812 0 L 169.382812 42.5 L 0.121094 42.5 Z M 0.121094 0 " clip-rule="nonzero"/></clipPath><clipPath id="65fc7482ee"><path d="M 0.121094 0 L 40 0 L 40 42.5 L 0.121094 42.5 Z M 0.121094 0 " clip-rule="nonzero"/></clipPath><clipPath id="c8267a53eb"><path d="M 0.121094 9 L 25 9 L 25 34 L 0.121094 34 Z M 0.121094 9 " clip-rule="nonzero"/></clipPath><clipPath id="9b1b7d5b6d"><rect x="0" width="40" y="0" height="43"/></clipPath><clipPath id="6d48a82589"><path d="M 45 0 L 169.382812 0 L 169.382812 42.5 L 45 42.5 Z M 45 0 " clip-rule="nonzero"/></clipPath><clipPath id="07b16da5f0"><rect x="0" width="125" y="0" height="43"/></clipPath><clipPath id="5209c543b8"><path d="M 39 10.328125 L 44 10.328125 L 44 16 L 39 16 Z M 39 10.328125 " clip-rule="nonzero"/></clipPath><clipPath id="08468d3af7"><path d="M 38.992188 15.355469 L 45.09375 15.355469 L 45.09375 32.667969 L 38.992188 32.667969 Z M 38.992188 15.355469 " clip-rule="nonzero"/></clipPath><clipPath id="e98dc7a336"><path d="M 37.378906 26 L 39 26 L 39 29 L 37.378906 29 Z M 37.378906 26 " clip-rule="nonzero"/></clipPath><clipPath id="204e73b525"><path d="M 37.378906 19 L 39 19 L 39 22 L 37.378906 22 Z M 37.378906 19 " clip-rule="nonzero"/></clipPath><clipPath id="b83ce0a41b"><path d="M 37.378906 22 L 39 22 L 39 24 L 37.378906 24 Z M 37.378906 22 " clip-rule="nonzero"/></clipPath><clipPath id="555217f21c"><path d="M 37.378906 17 L 39 17 L 39 20 L 37.378906 20 Z M 37.378906 17 " clip-rule="nonzero"/></clipPath><clipPath id="23174033b3"><path d="M 37.378906 1.347656 L 45.304688 1.347656 L 45.304688 9.273438 L 37.378906 9.273438 Z M 37.378906 1.347656 " clip-rule="nonzero"/></clipPath><clipPath id="f7f5617a82"><rect x="0" width="170" y="0" height="43"/></clipPath><clipPath id="9dbbe3e840"><rect x="0" width="170" y="0" height="43"/></clipPath></defs><g clip-path="url(#e0050e5039)"><g transform="matrix(1, 0, 0, 1, 0.000000000000000014, 0.000000000000006407)"><g clip-path="url(#9dbbe3e840)"><g clip-path="url(#5ac9336112)"><g transform="matrix(1, 0, 0, 1, 0.000000000000000014, 0.000000000000006407)"><g clip-path="url(#f7f5617a82)"><g clip-path="url(#65fc7482ee)"><g transform="matrix(1, 0, 0, 1, 0.000000000000000014, 0.000000000000006407)"><g clip-path="url(#9b1b7d5b6d)"><g clip-path="url(#c8267a53eb)"><g fill="#008090" fill-opacity="1"><g transform="translate(-0.679813, 32.617415)"><g><path d="M 12 0.453125 C 10.09375 0.453125 8.351562 -0.0351562 6.78125 -1.015625 C 5.207031 -2.003906 3.957031 -3.367188 3.03125 -5.109375 C 2.113281 -6.847656 1.65625 -8.847656 1.65625 -11.109375 C 1.65625 -13.367188 2.125 -15.367188 3.0625 -17.109375 C 4 -18.847656 5.285156 -20.21875 6.921875 -21.21875 C 8.554688 -22.21875 10.382812 -22.71875 12.40625 -22.71875 C 14.632812 -22.71875 16.363281 -22.195312 17.59375 -21.15625 C 18.832031 -20.113281 19.695312 -18.710938 20.1875 -16.953125 C 20.675781 -15.203125 20.921875 -13.253906 20.921875 -11.109375 C 20.921875 -9.921875 20.769531 -8.65625 20.46875 -7.3125 C 20.175781 -5.976562 19.703125 -4.710938 19.046875 -3.515625 C 18.398438 -2.328125 17.492188 -1.367188 16.328125 -0.640625 C 15.171875 0.0859375 13.726562 0.453125 12 0.453125 Z M 13.203125 -3.25 C 14.785156 -3.25 16.117188 -3.597656 17.203125 -4.296875 C 18.285156 -5.003906 19.09375 -5.953125 19.625 -7.140625 C 20.164062 -8.328125 20.4375 -9.648438 20.4375 -11.109375 C 20.4375 -12.691406 20.160156 -14.078125 19.609375 -15.265625 C 19.054688 -16.453125 18.238281 -17.375 17.15625 -18.03125 C 16.070312 -18.6875 14.753906 -19.015625 13.203125 -19.015625 C 10.890625 -19.015625 9.097656 -18.269531 7.828125 -16.78125 C 6.566406 -15.289062 5.9375 -13.398438 5.9375 -11.109375 C 5.9375 -9.566406 6.25 -8.207031 6.875 -7.03125 C 7.5 -5.851562 8.351562 -4.925781 9.4375 -4.25 C 10.519531 -3.582031 11.773438 -3.25 13.203125 -3.25 Z M 20.4375 -22.265625 L 24.71875 -22.265625 L 24.71875 0 L 20.796875 0 C 20.796875 0 20.765625 -0.273438 20.703125 -0.828125 C 20.640625 -1.378906 20.578125 -2.039062 20.515625 -2.8125 C 20.460938 -3.582031 20.4375 -4.265625 20.4375 -4.859375 Z M 20.4375 -22.265625 "/></g></g></g></g><g fill="#008090" fill-opacity="1"><g transform="translate(26.801795, 32.617415)"><g><path d="M 3.25 -31.1875 L 7.546875 -31.1875 L 7.546875 0 L 3.25 0 Z M 3.25 -31.1875 "/></g></g></g></g></g></g><g clip-path="url(#6d48a82589)"><g transform="matrix(1, 0, 0, 1, 45, 0.000000000000006407)"><g clip-path="url(#07b16da5f0)"><g fill="#008090" fill-opacity="1"><g transform="translate(0.980972, 32.617415)"><g><path d="M 11.78125 -3.484375 C 9.9375 -3.484375 8.238281 -3.851562 6.6875 -4.59375 C 5.144531 -5.34375 3.921875 -6.429688 3.015625 -7.859375 C 2.109375 -9.285156 1.65625 -11.007812 1.65625 -13.03125 C 1.65625 -15.019531 2.097656 -16.734375 2.984375 -18.171875 C 3.878906 -19.617188 5.09375 -20.738281 6.625 -21.53125 C 8.15625 -22.320312 9.875 -22.71875 11.78125 -22.71875 C 12.34375 -22.71875 12.875 -22.675781 13.375 -22.59375 C 13.882812 -22.519531 14.378906 -22.410156 14.859375 -22.265625 L 24.59375 -22.265625 L 24.59375 -18.25 C 23.25 -18.25 21.898438 -18.472656 20.546875 -18.921875 C 19.191406 -19.367188 18.007812 -19.84375 17 -20.34375 L 16.875 -20.578125 C 17.882812 -20.035156 18.757812 -19.382812 19.5 -18.625 C 20.238281 -17.875 20.8125 -17.03125 21.21875 -16.09375 C 21.625 -15.15625 21.828125 -14.101562 21.828125 -12.9375 C 21.828125 -10.976562 21.382812 -9.285156 20.5 -7.859375 C 19.625 -6.429688 18.421875 -5.34375 16.890625 -4.59375 C 15.359375 -3.851562 13.65625 -3.484375 11.78125 -3.484375 Z M 18.609375 9.015625 L 18.609375 7.984375 C 18.609375 6.472656 18.191406 5.390625 17.359375 4.734375 C 16.523438 4.078125 15.304688 3.75 13.703125 3.75 L 8.484375 3.75 C 7.378906 3.75 6.4375 3.660156 5.65625 3.484375 C 4.882812 3.304688 4.242188 3.046875 3.734375 2.703125 C 3.234375 2.359375 2.863281 1.941406 2.625 1.453125 C 2.394531 0.960938 2.28125 0.421875 2.28125 -0.171875 C 2.28125 -1.335938 2.632812 -2.21875 3.34375 -2.8125 C 4.0625 -3.40625 4.96875 -3.78125 6.0625 -3.9375 C 7.164062 -4.101562 8.285156 -4.113281 9.421875 -3.96875 L 11.78125 -3.484375 C 10.082031 -3.390625 8.785156 -3.222656 7.890625 -2.984375 C 7.003906 -2.753906 6.5625 -2.25 6.5625 -1.46875 C 6.5625 -1.019531 6.738281 -0.660156 7.09375 -0.390625 C 7.445312 -0.128906 7.953125 0 8.609375 0 L 14.0625 0 C 15.75 0 17.253906 0.210938 18.578125 0.640625 C 19.910156 1.078125 20.953125 1.804688 21.703125 2.828125 C 22.460938 3.859375 22.84375 5.265625 22.84375 7.046875 L 22.84375 9.015625 Z M 11.78125 -7.09375 C 12.851562 -7.09375 13.828125 -7.320312 14.703125 -7.78125 C 15.578125 -8.25 16.28125 -8.921875 16.8125 -9.796875 C 17.351562 -10.671875 17.625 -11.734375 17.625 -12.984375 C 17.625 -14.265625 17.363281 -15.359375 16.84375 -16.265625 C 16.320312 -17.171875 15.613281 -17.851562 14.71875 -18.3125 C 13.832031 -18.78125 12.851562 -19.015625 11.78125 -19.015625 C 10.707031 -19.015625 9.71875 -18.78125 8.8125 -18.3125 C 7.90625 -17.851562 7.179688 -17.175781 6.640625 -16.28125 C 6.109375 -15.394531 5.84375 -14.296875 5.84375 -12.984375 C 5.84375 -11.734375 6.109375 -10.671875 6.640625 -9.796875 C 7.179688 -8.921875 7.894531 -8.25 8.78125 -7.78125 C 9.675781 -7.320312 10.675781 -7.09375 11.78125 -7.09375 Z M 11.78125 -7.09375 "/></g></g></g><g fill="#008090" fill-opacity="1"><g transform="translate(26.142529, 32.617415)"><g><path d="M 2.8125 -22.265625 L 7.09375 -22.265625 L 7.09375 0 L 2.8125 0 Z M 15.578125 -22.71875 C 16.828125 -22.71875 17.957031 -22.535156 18.96875 -22.171875 C 19.976562 -21.816406 20.835938 -21.289062 21.546875 -20.59375 C 22.265625 -19.894531 22.820312 -19.03125 23.21875 -18 C 23.625 -16.976562 23.828125 -15.8125 23.828125 -14.5 L 23.828125 0 L 19.59375 0 L 19.59375 -13.5625 C 19.59375 -15.320312 19.164062 -16.640625 18.3125 -17.515625 C 17.46875 -18.390625 16.179688 -18.828125 14.453125 -18.828125 C 13.117188 -18.828125 11.898438 -18.515625 10.796875 -17.890625 C 9.691406 -17.265625 8.789062 -16.4375 8.09375 -15.40625 C 7.394531 -14.382812 6.972656 -13.234375 6.828125 -11.953125 L 6.78125 -14.40625 C 6.925781 -15.601562 7.242188 -16.707031 7.734375 -17.71875 C 8.234375 -18.726562 8.859375 -19.613281 9.609375 -20.375 C 10.367188 -21.132812 11.253906 -21.710938 12.265625 -22.109375 C 13.285156 -22.515625 14.390625 -22.71875 15.578125 -22.71875 Z M 15.578125 -22.71875 "/></g></g></g><g fill="#008090" fill-opacity="1"><g transform="translate(52.107116, 32.617415)"><g><path d="M 19.984375 -7.234375 L 24.046875 -7.234375 C 23.816406 -5.773438 23.253906 -4.460938 22.359375 -3.296875 C 21.460938 -2.140625 20.285156 -1.21875 18.828125 -0.53125 C 17.367188 0.144531 15.660156 0.484375 13.703125 0.484375 C 11.378906 0.484375 9.3125 -0.00390625 7.5 -0.984375 C 5.6875 -1.960938 4.257812 -3.3125 3.21875 -5.03125 C 2.175781 -6.757812 1.65625 -8.769531 1.65625 -11.0625 C 1.65625 -13.382812 2.160156 -15.414062 3.171875 -17.15625 C 4.179688 -18.894531 5.578125 -20.253906 7.359375 -21.234375 C 9.148438 -22.222656 11.191406 -22.71875 13.484375 -22.71875 C 15.890625 -22.71875 17.910156 -22.238281 19.546875 -21.28125 C 21.179688 -20.332031 22.390625 -18.925781 23.171875 -17.0625 C 23.960938 -15.207031 24.285156 -12.894531 24.140625 -10.125 L 5.890625 -10.125 C 6.035156 -8.789062 6.441406 -7.601562 7.109375 -6.5625 C 7.785156 -5.519531 8.679688 -4.703125 9.796875 -4.109375 C 10.910156 -3.515625 12.195312 -3.21875 13.65625 -3.21875 C 15.289062 -3.21875 16.65625 -3.585938 17.75 -4.328125 C 18.851562 -5.066406 19.597656 -6.035156 19.984375 -7.234375 Z M 13.515625 -19.0625 C 11.585938 -19.0625 9.984375 -18.546875 8.703125 -17.515625 C 7.421875 -16.484375 6.570312 -15.125 6.15625 -13.4375 L 19.859375 -13.4375 C 19.734375 -15.25 19.078125 -16.640625 17.890625 -17.609375 C 16.703125 -18.578125 15.242188 -19.0625 13.515625 -19.0625 Z M 13.515625 -19.0625 "/></g></g></g><g fill="#008090" fill-opacity="1"><g transform="translate(76.510174, 32.617415)"><g><path d="M 0.796875 -22.265625 L 5.359375 -22.265625 L 13.875 -0.890625 L 10.171875 0 Z M 23.515625 -22.265625 L 10.171875 8.921875 L 5.671875 8.921875 L 11.421875 -3.171875 L 19.015625 -22.265625 Z M 23.515625 -22.265625 "/></g></g></g><g fill="#008090" fill-opacity="1"><g transform="translate(99.440997, 32.617415)"><g><path d="M 19.984375 -7.234375 L 24.046875 -7.234375 C 23.816406 -5.773438 23.253906 -4.460938 22.359375 -3.296875 C 21.460938 -2.140625 20.285156 -1.21875 18.828125 -0.53125 C 17.367188 0.144531 15.660156 0.484375 13.703125 0.484375 C 11.378906 0.484375 9.3125 -0.00390625 7.5 -0.984375 C 5.6875 -1.960938 4.257812 -3.3125 3.21875 -5.03125 C 2.175781 -6.757812 1.65625 -8.769531 1.65625 -11.0625 C 1.65625 -13.382812 2.160156 -15.414062 3.171875 -17.15625 C 4.179688 -18.894531 5.578125 -20.253906 7.359375 -21.234375 C 9.148438 -22.222656 11.191406 -22.71875 13.484375 -22.71875 C 15.890625 -22.71875 17.910156 -22.238281 19.546875 -21.28125 C 21.179688 -20.332031 22.390625 -18.925781 23.171875 -17.0625 C 23.960938 -15.207031 24.285156 -12.894531 24.140625 -10.125 L 5.890625 -10.125 C 6.035156 -8.789062 6.441406 -7.601562 7.109375 -6.5625 C 7.785156 -5.519531 8.679688 -4.703125 9.796875 -4.109375 C 10.910156 -3.515625 12.195312 -3.21875 13.65625 -3.21875 C 15.289062 -3.21875 16.65625 -3.585938 17.75 -4.328125 C 18.851562 -5.066406 19.597656 -6.035156 19.984375 -7.234375 Z M 13.515625 -19.0625 C 11.585938 -19.0625 9.984375 -18.546875 8.703125 -17.515625 C 7.421875 -16.484375 6.570312 -15.125 6.15625 -13.4375 L 19.859375 -13.4375 C 19.734375 -15.25 19.078125 -16.640625 17.890625 -17.609375 C 16.703125 -18.578125 15.242188 -19.0625 13.515625 -19.0625 Z M 13.515625 -19.0625 "/></g></g></g></g></g></g><g clip-path="url(#5209c543b8)"><path fill="#008090" d="M 42.695312 15.546875 L 42.703125 15.546875 C 42.820312 15.546875 42.914062 15.503906 42.996094 15.410156 C 43.417969 14.945312 43.382812 13.527344 43.335938 13.019531 C 43.335938 13.011719 43.335938 13.007812 43.335938 13.003906 L 43.328125 12.121094 C 43.320312 11.136719 42.511719 10.335938 41.527344 10.335938 C 40.535156 10.335938 39.726562 11.144531 39.726562 12.136719 L 39.726562 13 C 39.726562 13.296875 39.816406 13.796875 40.070312 14.230469 C 40.53125 15.019531 41.585938 15.546875 42.695312 15.546875 " fill-opacity="1" fill-rule="nonzero"/></g><g clip-path="url(#08468d3af7)"><path fill="#008090" d="M 43.035156 20.191406 C 43.125 20.164062 43.21875 20.210938 43.25 20.300781 C 43.257812 20.335938 43.496094 21.0625 44.355469 21.335938 C 44.441406 21.367188 44.492188 21.460938 44.464844 21.550781 C 44.441406 21.621094 44.375 21.667969 44.300781 21.667969 C 44.285156 21.667969 44.269531 21.664062 44.25 21.660156 C 43.21875 21.328125 42.933594 20.4375 42.925781 20.402344 C 42.898438 20.3125 42.945312 20.21875 43.035156 20.191406 Z M 45.035156 32.175781 C 44.996094 32.101562 44.957031 32.03125 44.917969 31.964844 C 44.796875 31.746094 44.679688 31.542969 44.589844 31.332031 C 44.363281 30.816406 44.289062 30.316406 44.191406 29.679688 C 44.101562 29.085938 44 28.417969 43.746094 27.535156 C 43.492188 26.660156 43.125 26.074219 42.800781 25.554688 C 42.4375 24.976562 42.125 24.480469 42.125 23.785156 C 42.238281 19.726562 41.957031 19.054688 41.511719 18.496094 C 41.453125 18.421875 41.464844 18.316406 41.539062 18.257812 C 41.613281 18.199219 41.71875 18.210938 41.777344 18.285156 C 42.265625 18.902344 42.582031 19.621094 42.464844 23.792969 C 42.464844 24.382812 42.738281 24.820312 43.085938 25.375 C 43.425781 25.910156 43.804688 26.519531 44.070312 27.441406 C 44.074219 27.449219 44.074219 27.457031 44.078125 27.460938 C 44.113281 27.585938 44.292969 27.570312 44.300781 27.441406 C 44.378906 26.292969 44.464844 24.984375 44.519531 24.308594 C 44.605469 23.234375 44.699219 22.648438 44.769531 22.222656 C 44.832031 21.84375 44.871094 21.589844 44.871094 21.214844 C 44.871094 20.394531 44.488281 19.585938 43.625 18.589844 C 43.339844 18.265625 43.089844 18.011719 42.890625 17.804688 C 42.414062 17.320312 42.125 17.027344 42.125 16.507812 L 42.125 16.035156 C 42.125 15.925781 42.046875 15.832031 41.945312 15.8125 C 41.527344 15.734375 41.136719 15.589844 40.796875 15.390625 C 40.644531 15.300781 40.453125 15.40625 40.453125 15.582031 L 40.453125 16.183594 C 40.453125 16.699219 40.238281 17.144531 39.988281 17.65625 C 39.625 18.394531 39.214844 19.234375 39.261719 20.632812 C 39.304688 22.007812 39.515625 22.839844 39.71875 23.640625 C 39.910156 24.394531 40.089844 25.105469 40.089844 26.160156 C 40.089844 27.1875 39.84375 27.695312 39.582031 28.234375 C 39.296875 28.832031 38.996094 29.449219 38.996094 30.917969 C 38.996094 31.40625 39.109375 31.960938 39.324219 32.558594 C 39.390625 32.742188 39.566406 32.863281 39.761719 32.863281 L 43.542969 32.863281 C 43.6875 32.863281 43.792969 32.730469 43.761719 32.585938 C 43.699219 32.300781 43.609375 31.960938 43.515625 31.769531 C 43.355469 31.449219 43.058594 30.96875 42.714844 30.414062 C 42.003906 29.265625 41.113281 27.835938 40.636719 26.523438 C 40.601562 26.425781 40.660156 26.316406 40.765625 26.296875 C 40.847656 26.28125 40.929688 26.335938 40.957031 26.414062 C 41.425781 27.691406 42.300781 29.101562 43.003906 30.234375 C 43.351562 30.796875 43.652344 31.28125 43.820312 31.621094 C 43.949219 31.882812 44.0625 32.363281 44.128906 32.683594 C 44.152344 32.789062 44.246094 32.863281 44.351562 32.863281 L 44.703125 32.863281 C 44.738281 32.863281 44.773438 32.855469 44.804688 32.839844 C 45.082031 32.699219 45.160156 32.402344 45.035156 32.175781 " fill-opacity="1" fill-rule="nonzero"/></g><path fill="#008090" d="M 38.425781 24.25 C 38.40625 24.25 38.386719 24.253906 38.367188 24.257812 C 38.183594 24.289062 38.058594 24.464844 38.09375 24.648438 C 38.15625 25.007812 38.191406 25.363281 38.207031 25.726562 C 38.214844 25.910156 38.363281 26.050781 38.546875 26.050781 L 38.558594 26.050781 C 38.746094 26.042969 38.890625 25.886719 38.882812 25.699219 C 38.871094 25.304688 38.828125 24.921875 38.761719 24.53125 C 38.730469 24.371094 38.589844 24.25 38.425781 24.25 " fill-opacity="1" fill-rule="nonzero"/><g clip-path="url(#e98dc7a336)"><path fill="#008090" d="M 38.523438 26.503906 C 38.496094 26.496094 38.46875 26.492188 38.4375 26.492188 C 38.285156 26.492188 38.148438 26.597656 38.109375 26.75 C 38.035156 27.050781 37.917969 27.382812 37.757812 27.769531 C 37.722656 27.855469 37.722656 27.945312 37.757812 28.03125 C 37.789062 28.113281 37.855469 28.179688 37.9375 28.214844 C 37.980469 28.230469 38.023438 28.242188 38.070312 28.242188 C 38.207031 28.242188 38.328125 28.160156 38.382812 28.03125 C 38.558594 27.613281 38.683594 27.25 38.769531 26.917969 C 38.789062 26.828125 38.777344 26.738281 38.730469 26.660156 C 38.683594 26.582031 38.609375 26.527344 38.523438 26.503906 " fill-opacity="1" fill-rule="nonzero"/></g><g clip-path="url(#204e73b525)"><path fill="#008090" d="M 37.804688 21.609375 C 37.898438 21.601562 37.976562 21.558594 38.035156 21.488281 C 38.09375 21.417969 38.121094 21.328125 38.113281 21.238281 C 38.085938 20.964844 38.070312 20.675781 38.0625 20.378906 C 38.058594 20.3125 38.058594 20.242188 38.058594 20.175781 L 38.058594 20.144531 C 38.058594 20.054688 38.023438 19.96875 37.960938 19.902344 C 37.894531 19.839844 37.8125 19.804688 37.71875 19.804688 C 37.53125 19.804688 37.378906 19.953125 37.378906 20.140625 L 37.378906 20.179688 C 37.378906 20.25 37.378906 20.324219 37.382812 20.402344 C 37.390625 20.710938 37.410156 21.015625 37.4375 21.300781 C 37.453125 21.476562 37.597656 21.609375 37.773438 21.609375 C 37.785156 21.609375 37.796875 21.609375 37.804688 21.609375 " fill-opacity="1" fill-rule="nonzero"/></g><path fill="#008090" d="M 38.914062 15.492188 C 38.730469 15.492188 38.578125 15.644531 38.578125 15.832031 C 38.578125 16.160156 38.453125 16.480469 38.320312 16.773438 C 38.242188 16.945312 38.320312 17.148438 38.488281 17.222656 C 38.535156 17.242188 38.582031 17.253906 38.628906 17.253906 C 38.761719 17.253906 38.882812 17.175781 38.9375 17.054688 C 39.101562 16.6875 39.253906 16.289062 39.253906 15.832031 C 39.253906 15.644531 39.101562 15.492188 38.914062 15.492188 " fill-opacity="1" fill-rule="nonzero"/><g clip-path="url(#b83ce0a41b)"><path fill="#008090" d="M 38.179688 23.828125 C 38.207031 23.828125 38.234375 23.824219 38.261719 23.820312 C 38.441406 23.773438 38.554688 23.589844 38.507812 23.40625 C 38.429688 23.089844 38.339844 22.726562 38.265625 22.324219 C 38.234375 22.164062 38.09375 22.050781 37.933594 22.050781 C 37.910156 22.050781 37.890625 22.050781 37.867188 22.054688 C 37.78125 22.070312 37.703125 22.121094 37.652344 22.195312 C 37.601562 22.273438 37.582031 22.363281 37.597656 22.449219 C 37.679688 22.871094 37.769531 23.242188 37.851562 23.570312 C 37.886719 23.722656 38.023438 23.828125 38.179688 23.828125 " fill-opacity="1" fill-rule="nonzero"/></g><g clip-path="url(#555217f21c)"><path fill="#008090" d="M 37.761719 19.351562 C 37.785156 19.355469 37.808594 19.359375 37.828125 19.359375 C 37.988281 19.359375 38.128906 19.246094 38.160156 19.085938 C 38.230469 18.746094 38.328125 18.421875 38.472656 18.070312 C 38.507812 17.984375 38.507812 17.894531 38.472656 17.808594 C 38.4375 17.726562 38.371094 17.660156 38.289062 17.628906 C 38.246094 17.609375 38.203125 17.601562 38.160156 17.601562 C 38.019531 17.601562 37.898438 17.683594 37.84375 17.8125 C 37.6875 18.203125 37.570312 18.574219 37.496094 18.953125 C 37.476562 19.042969 37.496094 19.132812 37.546875 19.207031 C 37.597656 19.285156 37.671875 19.335938 37.761719 19.351562 " fill-opacity="1" fill-rule="nonzero"/></g><g clip-path="url(#23174033b3)"><path stroke-linecap="butt" transform="matrix(0.0201702, 0, 0, 0.0201702, 37.379303, 1.3465)" fill-opacity="1" fill="#008090" fill-rule="nonzero" stroke-linejoin="miter" d="M 191.127152 381.96364 C 85.967351 381.96364 0.561324 296.557613 0.561324 191.204146 C 0.561324 85.85068 85.967351 0.444653 191.127152 0.444653 C 296.480619 0.444653 381.886646 85.85068 381.886646 191.204146 C 381.886646 296.557613 296.480619 381.96364 191.127152 381.96364 Z M 191.127152 381.96364 " stroke="#3fb24f" stroke-width="1" stroke-opacity="1" stroke-miterlimit="10"/></g><path fill="#ffffff" d="M 40.210938 7.121094 L 38.992188 5.539062 C 38.882812 5.398438 38.910156 5.199219 39.050781 5.089844 L 39.183594 4.988281 C 39.320312 4.882812 39.523438 4.90625 39.628906 5.046875 L 40.234375 5.828125 C 40.359375 5.992188 40.601562 5.996094 40.734375 5.835938 L 42.851562 3.277344 C 42.964844 3.140625 43.167969 3.121094 43.304688 3.234375 L 43.429688 3.339844 C 43.566406 3.453125 43.585938 3.652344 43.472656 3.789062 L 40.710938 7.132812 C 40.578125 7.289062 40.335938 7.285156 40.210938 7.121094 Z M 40.210938 7.121094 " fill-opacity="1" fill-rule="nonzero"/></g></g></g></g></g></g></svg>